<svg width="300px" xmlns="http://www.w3.org/2000/svg" viewBox="0 0 522.22461 325.5721"><defs><style>.cls-1{fill:#1a2a6b;}.cls-2{fill:#ff0049;}</style></defs><title>Cymptom logo</title><g id="Layer_2" data-name="Layer 2"><g id="Layer_1-2" data-name="Layer 1"><path class="cls-1" d="M67.74316,178.13265v15.35059q-11.23535-9.39844-23.248-9.39942a29.6044,29.6044,0,0,0-22.30371,9.51074,32.067,32.067,0,0,0-9.1211,23.13721,31.29388,31.29388,0,0,0,9.1211,22.80371,30.1251,30.1251,0,0,0,22.35937,9.28858,27.42839,27.42839,0,0,0,11.624-2.2251,33.46122,33.46122,0,0,0,5.53418-3.00342,65.26233,65.26233,0,0,0,6.03418-4.56055V254.6639a46.80418,46.80418,0,0,1-23.35937,6.28467A43.09944,43.09944,0,0,1,12.959,248.10091,42.59539,42.59539,0,0,1,0,216.8431a44.09829,44.09829,0,0,1,10.8457-29.25537q13.34766-15.739,34.53907-15.74024A43.84216,43.84216,0,0,1,67.74316,178.13265Z"/><path class="cls-1" d="M98.77832,249.32454,74.417,205.21907h14.5166l16.5752,31.146,15.46191-31.146h14.127L91.9375,288.86947H77.64355Z"/><path class="cls-1" d="M143.60645,205.21907h12.51464v5.00538a26.14166,26.14166,0,0,1,6.17383-5.1167,14.97883,14.97883,0,0,1,6.84082-1.39063q9.17726,0,14.5166,8.00928a18.78964,18.78964,0,0,1,15.96289-8.00928q18.29737,0,18.29786,22.1919v33.48242H205.34375V229.30159q0-7.78564-1.8916-11.0122-1.94677-3.28125-6.39551-3.28174-5.17236,0-7.53613,3.89355-2.36572,3.89357-2.36426,12.51416v27.97608H174.58691V229.46859q0-14.46021-8.34375-14.46094-5.28369,0-7.70312,3.94922-2.41846,3.94921-2.41895,12.45849v27.97608H143.60645Z"/><path class="cls-1" d="M247.61426,288.86947H235.09961v-83.6504h12.51465v5.89551q7.396-7.39673,16.79687-7.39746a23.42481,23.42481,0,0,1,18.41016,8.23145q7.34033,8.176,7.34082,20.63476,0,12.18018-7.28613,20.30078a23.44829,23.44829,0,0,1-18.24219,8.06446q-9.51123,0-17.01953-7.61963ZM277.37012,232.639q0-7.78638-4.22657-12.68116a13.6659,13.6659,0,0,0-10.79-4.95019,14.29745,14.29745,0,0,0-11.17969,4.7832q-4.28321,4.78419-4.28223,12.56983a18.51918,18.51918,0,0,0,4.28223,12.56982,14.05254,14.05254,0,0,0,11.124,4.83887,13.564,13.564,0,0,0,10.73438-4.89453A17.77118,17.77118,0,0,0,277.37012,232.639Z"/><path class="cls-1" d="M317.30469,216.89876v42.49268H304.79V216.89876h-5.33887V205.21907H304.79V185.36312h12.51465v19.85595h9.73242v11.67969Z"/><path class="cls-1" d="M333.76758,231.91585a26.91818,26.91818,0,0,1,8.39844-19.96728,29.62777,29.62777,0,0,1,41.04589.05566,29.00551,29.00551,0,0,1-.05566,40.76856,28.70584,28.70584,0,0,1-20.74512,8.17578,27.52417,27.52417,0,0,1-20.41211-8.34278Q333.7666,244.37557,333.76758,231.91585Zm12.792.22266q0,8.12109,4.33789,12.84765a15.2701,15.2701,0,0,0,11.73535,4.78321q7.34179,0,11.73633-4.72754,4.39306-4.72706,4.39356-12.62549,0-7.897-4.39356-12.62549a16.65237,16.65237,0,0,0-23.36035,0Q346.55859,224.575,346.55957,232.13851Z"/><path class="cls-1" d="M404.792,205.21907h12.51465v5.00538a26.14147,26.14147,0,0,1,6.17383-5.1167,14.97883,14.97883,0,0,1,6.84082-1.39063q9.17724,0,14.5166,8.00928a18.78964,18.78964,0,0,1,15.96289-8.00928q18.29736,0,18.29785,22.1919v33.48242H466.5293V229.30159q0-7.78564-1.8916-11.0122-1.94679-3.28125-6.39551-3.28174-5.17236,0-7.53614,3.89355-2.36571,3.89357-2.36425,12.51416v27.97608H435.77246V229.46859q0-14.46021-8.34375-14.46094-5.28369,0-7.70312,3.94922-2.41847,3.94921-2.41895,12.45849v27.97608H404.792Z"/><path class="cls-1" d="M522.22461,218.60824a16.32144,16.32144,0,0,1-4.90918,11.95947,16.79176,16.79176,0,0,1-23.793-.021,16.343,16.343,0,0,1-4.91016-11.98047,15.77143,15.77143,0,0,1,1.59473-7.1123,16.5935,16.5935,0,0,1,4.49024-5.791,16.14856,16.14856,0,0,1,10.55371-3.88135,16.42578,16.42578,0,0,1,7.02832,1.46827,16.06071,16.06071,0,0,1,7.19726,6.18994A16.59984,16.59984,0,0,1,522.22461,218.60824Zm-16.91113-14.37208a13.25779,13.25779,0,0,0-9.86133,4.23829,14.02949,14.02949,0,0,0-4.13281,10.11279,14.17852,14.17852,0,0,0,4.13281,10.23926,13.86088,13.86088,0,0,0,19.93262.021,14.17059,14.17059,0,0,0,4.1123-10.23925,15.47927,15.47927,0,0,0-1.61523-6.62989,13.50538,13.50538,0,0,0-4.23829-5.09863A14.02488,14.02488,0,0,0,505.31348,204.23616Zm6.56738,5.833v4.23828l-.52441-.41992a8.4224,8.4224,0,0,0-5.20313-1.99316,6.47121,6.47121,0,0,0-4.78418,1.97217,6.67138,6.67138,0,0,0-1.95117,4.84668,6.391,6.391,0,0,0,1.95117,4.76269,6.6574,6.6574,0,0,0,4.80469,1.93066,8.42811,8.42811,0,0,0,5.18262-2.05615l.52441-.41992v4.28027a11.85092,11.85092,0,0,1-5.749,1.51075,10.27616,10.27616,0,0,1-7.38477-2.91651,9.81388,9.81388,0,0,1,.0625-14.26709,10.51866,10.51866,0,0,1,7.53223-2.95849,11.16232,11.16232,0,0,1,5.37109,1.40576Z"/><path class="cls-1" d="M361.48438,295.89046h-5.832l-1.5166,3.30811H351.9209l6.74023-14.47657,6.501,14.47657h-2.249Zm-.83887-1.93213L358.626,289.327l-2.11719,4.63134Z"/><path class="cls-1" d="M371.47949,292.07064l-1.6416.87353q-.38819-.79394-.96094-.79394a.66036.66036,0,0,0-.46777.18066.60325.60325,0,0,0-.19434.46289q0,.49439,1.14746.97949a6.84859,6.84859,0,0,1,2.126,1.25245,2.14582,2.14582,0,0,1,.54688,1.54394,2.70373,2.70373,0,0,1-.918,2.082,3.28911,3.28911,0,0,1-5.21289-1.31445l1.69336-.78516a3.711,3.711,0,0,0,.53808.78516,1.22688,1.22688,0,0,0,.86426.335q1.00635,0,1.00586-.91748,0-.52881-.77637-.98779c-.20019-.1001-.39941-.19678-.59961-.291s-.40332-.19092-.6084-.291a3.72818,3.72818,0,0,1-1.21777-.84717,2.08618,2.08618,0,0,1-.45019-1.38477,2.45076,2.45076,0,0,1,.76757-1.85254,2.69123,2.69123,0,0,1,1.90528-.73242A2.6011,2.6011,0,0,1,371.47949,292.07064Z"/><path class="cls-1" d="M378.81055,292.07064l-1.6416.87353q-.38818-.79394-.96094-.79394a.66037.66037,0,0,0-.46778.18066.60324.60324,0,0,0-.19433.46289q0,.49439,1.14746.97949a6.84884,6.84884,0,0,1,2.126,1.25245,2.14585,2.14585,0,0,1,.54687,1.54394,2.70369,2.70369,0,0,1-.918,2.082,3.28911,3.28911,0,0,1-5.21289-1.31445l1.69336-.78516a3.71058,3.71058,0,0,0,.53809.78516,1.22685,1.22685,0,0,0,.86425.335q1.00635,0,1.00586-.91748,0-.52881-.77636-.98779c-.2002-.1001-.39942-.19678-.59961-.291s-.40332-.19092-.6084-.291a3.72807,3.72807,0,0,1-1.21777-.84717,2.08613,2.08613,0,0,1-.4502-1.38477,2.45074,2.45074,0,0,1,.76758-1.85254,2.69121,2.69121,0,0,1,1.90527-.73242A2.60112,2.60112,0,0,1,378.81055,292.07064Z"/><path class="cls-1" d="M383.13184,290.60628v4.93115q0,2.135,1.68554,2.13477,1.68457,0,1.68457-2.13477v-4.93115h1.98535v4.97559a5.55262,5.55262,0,0,1-.25585,1.78174,2.99,2.99,0,0,1-.85645,1.20849,4.16953,4.16953,0,0,1-5.10742,0,3.02618,3.02618,0,0,1-.87305-1.20849,4.90432,4.90432,0,0,1-.24707-1.78174v-4.97559Z"/><path class="cls-1" d="M390.99316,290.60628h1.98438v.79395a4.15767,4.15767,0,0,1,.97949-.81153,2.37488,2.37488,0,0,1,1.085-.2207,2.63335,2.63335,0,0,1,2.30274,1.27051A2.97837,2.97837,0,0,1,399.876,290.368q2.90331,0,2.90234,3.52v5.31055h-1.99316v-4.77246a3.6902,3.6902,0,0,0-.29981-1.74659,1.08718,1.08718,0,0,0-1.01465-.5205,1.2941,1.2941,0,0,0-1.19531.61718,3.97815,3.97815,0,0,0-.375,1.98487v4.4375h-1.99414v-4.7461q0-2.29322-1.32324-2.29345a1.32615,1.32615,0,0,0-1.22168.626,3.9078,3.9078,0,0,0-.38379,1.97608v4.4375h-1.98438Z"/><path class="cls-1" d="M413.1084,295.37h-6.15723a2.60664,2.60664,0,0,0,.68848,1.68506,2.09629,2.09629,0,0,0,1.56152.61719,2.02959,2.02959,0,0,0,1.22559-.35254,5.01534,5.01534,0,0,0,1.085-1.30566l1.67676.93506a6.69437,6.69437,0,0,1-.82032,1.13378,4.38733,4.38733,0,0,1-.92675.77588,3.71451,3.71451,0,0,1-1.06739.4458,5.21779,5.21779,0,0,1-1.24414.14112,4.04316,4.04316,0,0,1-3.08691-1.23487,4.63347,4.63347,0,0,1-1.165-3.29931,4.76521,4.76521,0,0,1,1.12891-3.29981,4.30386,4.30386,0,0,1,6.0166-.03515,4.753,4.753,0,0,1,1.09375,3.32568Zm-2.03711-1.623a1.90188,1.90188,0,0,0-2.00293-1.58789,2.05646,2.05646,0,0,0-.67871.10986,1.94106,1.94106,0,0,0-.57813.31787,1.99263,1.99263,0,0,0-.44531.49854,2.29177,2.29177,0,0,0-.28223.66162Z"/><path class="cls-1" d="M420.85449,290.60628h1.99317v.79395a3.25535,3.25535,0,0,1,2.34668-1.03223,2.96458,2.96458,0,0,1,2.33789.94385,3.86444,3.86444,0,0,1,.72363,2.62012v5.2666h-1.99414v-4.79883a3.148,3.148,0,0,0-.35254-1.75586,1.42513,1.42513,0,0,0-1.25293-.49365,1.531,1.531,0,0,0-1.40234.65283,4.491,4.491,0,0,0-.40625,2.24951v4.146h-1.99317Z"/><path class="cls-1" d="M430.35449,294.84066a4.27152,4.27152,0,0,1,1.332-3.167,4.6997,4.6997,0,0,1,6.51075.00879,4.60064,4.60064,0,0,1-.00879,6.46631,4.5541,4.5541,0,0,1-3.291,1.29688,4.36594,4.36594,0,0,1-3.2373-1.32324A4.45178,4.45178,0,0,1,430.35449,294.84066Zm2.0293.03515a2.89748,2.89748,0,0,0,.68848,2.03809,2.67469,2.67469,0,0,0,3.72265.00879,3.22823,3.22823,0,0,0,0-4.00537,2.642,2.642,0,0,0-3.70508,0A2.76048,2.76048,0,0,0,432.38379,294.87581Z"/><path class="cls-1" d="M443.77344,292.45882v6.73975h-1.98535v-6.73975h-.84668v-1.85254h.84668v-3.14941h1.98535v3.14941h1.543v1.85254Z"/><path class="cls-1" d="M447.02832,284.29866h1.98438v7.022a3.41871,3.41871,0,0,1,2.33789-.95264,3.02145,3.02145,0,0,1,2.3291.94385,3.84068,3.84068,0,0,1,.74121,2.62012v5.2666h-1.98535V294.117a2.42148,2.42148,0,0,0-.36621-1.49511,1.41147,1.41147,0,0,0-1.17774-.46289,1.61824,1.61824,0,0,0-1.46387.644,4.41462,4.41462,0,0,0-.415,2.24072v4.15479h-1.98438Z"/><path class="cls-1" d="M456.63574,287.03353a1.29471,1.29471,0,0,1,1.28711-1.2793,1.24991,1.24991,0,0,1,.918.3794,1.22041,1.22041,0,0,1,.37891.90869,1.24916,1.24916,0,0,1-.37891.91748,1.22053,1.22053,0,0,1-.9082.37939,1.29458,1.29458,0,0,1-1.29688-1.30566Zm2.28418,3.57275v8.59229h-1.98437v-8.59229Z"/><path class="cls-1" d="M461.43457,290.60628h1.99316v.79395a3.25538,3.25538,0,0,1,2.34668-1.03223,2.96457,2.96457,0,0,1,2.33789.94385,3.86439,3.86439,0,0,1,.72364,2.62012v5.2666H466.8418v-4.79883a3.148,3.148,0,0,0-.35254-1.75586,1.42513,1.42513,0,0,0-1.25293-.49365,1.53106,1.53106,0,0,0-1.40235.65283,4.49108,4.49108,0,0,0-.40625,2.24951v4.146h-1.99316Z"/><path class="cls-1" d="M479.65039,298.99544q0,.60938-.03906,1.07227a7.72365,7.72365,0,0,1-.11035.81592,3.64047,3.64047,0,0,1-.8291,1.667,4.01976,4.01976,0,0,1-3.20313,1.34131,4.273,4.273,0,0,1-2.83105-.92627,3.78506,3.78506,0,0,1-1.32325-2.6377h1.99317a2.25034,2.25034,0,0,0,.37988.979,2.13,2.13,0,0,0,1.79883.80273q2.17968,0,2.17969-2.67285v-1.19971a3.70785,3.70785,0,0,1-2.72657,1.2085,3.661,3.661,0,0,1-2.876-1.27051,4.71027,4.71027,0,0,1-1.12891-3.21973,4.95343,4.95343,0,0,1,1.04981-3.19336,3.64889,3.64889,0,0,1,2.98144-1.394,3.4651,3.4651,0,0,1,2.7002,1.2085v-.97022h1.98437Zm-1.90527-4.07519a2.89208,2.89208,0,0,0-.6709-2.00293,2.215,2.215,0,0,0-1.73731-.76709,2.13769,2.13769,0,0,0-1.78222.83789,3.04523,3.04523,0,0,0-.59082,1.94092,3.014,3.014,0,0,0,.59082,1.92285,2.14022,2.14022,0,0,0,1.78222.82031,2.18,2.18,0,0,0,1.79981-.8291A2.95485,2.95485,0,0,0,477.74512,294.92025Z"/><path class="cls-1" d="M482.46484,298.21077a1.22611,1.22611,0,0,1,2.45215.00879,1.18923,1.18923,0,0,1-.36133.873,1.24638,1.24638,0,0,1-1.73828,0A1.19539,1.19539,0,0,1,482.46484,298.21077Z"/><path class="cls-1" d="M331.04883,321.12581h-2.585l-1.06739-1.09375a6.872,6.872,0,0,1-3.79394,1.09375,7.09794,7.09794,0,0,1-4.80762-1.835,6.57925,6.57925,0,0,1-2.28418-5.16064,6.79085,6.79085,0,0,1,2.16114-5.13428,7.11224,7.11224,0,0,1,9.60644-.24707,6.84915,6.84915,0,0,1,2.4707,5.47852,6.64086,6.64086,0,0,1-1.95019,4.70166Zm-5.65528-5.6372,1.97657,1.96728a4.66355,4.66355,0,0,0,1.30566-3.36084,5.04047,5.04047,0,0,0-1.456-3.67871,4.86344,4.86344,0,0,0-3.61719-1.48242,4.75177,4.75177,0,0,0-3.59863,1.48242,5.15663,5.15663,0,0,0-1.4209,3.73145,4.77411,4.77411,0,0,0,1.46484,3.60791,4.92324,4.92324,0,0,0,3.48438,1.44677,4.80453,4.80453,0,0,0,2.4082-.6084l-3.20215-3.10546Z"/><path class="cls-1" d="M334.93848,312.28646v4.93115q0,2.135,1.68554,2.13477,1.68458,0,1.68457-2.13477v-4.93115H340.294V317.262a5.55261,5.55261,0,0,1-.25586,1.78174,2.98994,2.98994,0,0,1-.85645,1.2085,4.16956,4.16956,0,0,1-5.10742,0,3.02614,3.02614,0,0,1-.87305-1.2085,4.90425,4.90425,0,0,1-.24707-1.78174v-4.97558Z"/><path class="cls-1" d="M350.624,317.05013H344.4668a2.60658,2.60658,0,0,0,.68847,1.68506,2.09631,2.09631,0,0,0,1.56153.61719,2.02958,2.02958,0,0,0,1.22558-.35254,5.015,5.015,0,0,0,1.085-1.30567l1.67676.93506a6.694,6.694,0,0,1-.82031,1.13379,4.388,4.388,0,0,1-.92676.77588,3.715,3.715,0,0,1-1.06738.4458,5.21786,5.21786,0,0,1-1.24414.14111,4.0432,4.0432,0,0,1-3.08692-1.23486,4.63353,4.63353,0,0,1-1.165-3.29932,4.76524,4.76524,0,0,1,1.12891-3.2998,4.30387,4.30387,0,0,1,6.0166-.03516,4.753,4.753,0,0,1,1.09375,3.32569Zm-2.03711-1.62305a1.90188,1.90188,0,0,0-2.00293-1.58789,2.05621,2.05621,0,0,0-.67871.10987,1.94079,1.94079,0,0,0-.57812.31787,1.99237,1.99237,0,0,0-.44531.49853,2.29134,2.29134,0,0,0-.28223.66162Z"/><path class="cls-1" d="M357.78711,313.75081l-1.6416.87354q-.38818-.79395-.96094-.79395a.66029.66029,0,0,0-.46777.18067.6032.6032,0,0,0-.19434.46289q0,.49439,1.14746.97949a6.84893,6.84893,0,0,1,2.126,1.25244,2.14584,2.14584,0,0,1,.54687,1.54395,2.70371,2.70371,0,0,1-.918,2.082,3.28912,3.28912,0,0,1-5.21289-1.31446l1.69336-.78515a3.71014,3.71014,0,0,0,.53809.78515,1.22684,1.22684,0,0,0,.86426.335q1.00635,0,1.00586-.91748,0-.52881-.77637-.9878c-.2002-.1001-.39941-.19678-.59961-.291s-.40332-.19092-.6084-.291a3.72777,3.72777,0,0,1-1.21777-.84717,2.0861,2.0861,0,0,1-.4502-1.38476,2.45074,2.45074,0,0,1,.76758-1.85254,2.69121,2.69121,0,0,1,1.90527-.73242A2.60113,2.60113,0,0,1,357.78711,313.75081Z"/><path class="cls-1" d="M362.17188,314.139v6.73974h-1.98536V314.139h-.84668v-1.85254h.84668V309.137h1.98536v3.14942h1.543V314.139Z"/><path class="cls-1" d="M364.76562,308.7137a1.29469,1.29469,0,0,1,1.28711-1.27929,1.2499,1.2499,0,0,1,.918.37939,1.22043,1.22043,0,0,1,.37891.90869,1.24915,1.24915,0,0,1-.37891.91748,1.22054,1.22054,0,0,1-.9082.3794,1.2946,1.2946,0,0,1-1.29688-1.30567Zm2.28418,3.57276v8.59228h-1.98437v-8.59228Z"/><path class="cls-1" d="M369.1582,316.52083a4.27152,4.27152,0,0,1,1.332-3.167,4.6997,4.6997,0,0,1,6.51075.00879,4.60064,4.60064,0,0,1-.00879,6.46631,4.55413,4.55413,0,0,1-3.291,1.29687,4.3659,4.3659,0,0,1-3.2373-1.32324A4.45175,4.45175,0,0,1,369.1582,316.52083Zm2.0293.03516a2.89746,2.89746,0,0,0,.68848,2.03808,2.67467,2.67467,0,0,0,3.72265.00879,3.22823,3.22823,0,0,0,0-4.00537,2.642,2.642,0,0,0-3.70508,0A2.76049,2.76049,0,0,0,371.1875,316.556Z"/><path class="cls-1" d="M380.42383,312.28646H382.417v.79394a3.25535,3.25535,0,0,1,2.34668-1.03222,2.96459,2.96459,0,0,1,2.33789.94384,3.86448,3.86448,0,0,1,.72364,2.62012v5.2666h-1.99415v-4.79883a3.148,3.148,0,0,0-.35253-1.75585,1.42513,1.42513,0,0,0-1.25293-.49366,1.53107,1.53107,0,0,0-1.40235.65284,4.49092,4.49092,0,0,0-.40625,2.24951v4.146h-1.99316Z"/><path class="cls-1" d="M403.73047,317.05013h-6.15723a2.60664,2.60664,0,0,0,.68848,1.68506,2.09629,2.09629,0,0,0,1.56152.61719,2.02959,2.02959,0,0,0,1.22559-.35254,5.01525,5.01525,0,0,0,1.085-1.30567l1.67676.93506a6.69407,6.69407,0,0,1-.82032,1.13379,4.38793,4.38793,0,0,1-.92675.77588,3.715,3.715,0,0,1-1.06739.4458,5.2178,5.2178,0,0,1-1.24414.14111,4.04319,4.04319,0,0,1-3.08691-1.23486,4.63348,4.63348,0,0,1-1.165-3.29932,4.7652,4.7652,0,0,1,1.12891-3.2998,4.30387,4.30387,0,0,1,6.0166-.03516,4.753,4.753,0,0,1,1.09375,3.32569Zm-2.03711-1.62305a1.90189,1.90189,0,0,0-2.00293-1.58789,2.05621,2.05621,0,0,0-.67871.10987,1.94084,1.94084,0,0,0-.57813.31787,1.99276,1.99276,0,0,0-.44531.49853,2.29189,2.29189,0,0,0-.28223.66162Z"/><path class="cls-1" d="M406.65918,312.28646l2.22266,4.82519,2.21484-4.82519h2.23144l-4.46386,9.1831-4.42871-9.1831Z"/><path class="cls-1" d="M422.18555,317.05013h-6.15723a2.60659,2.60659,0,0,0,.68848,1.68506,2.09629,2.09629,0,0,0,1.56152.61719,2.02963,2.02963,0,0,0,1.22559-.35254,5.01545,5.01545,0,0,0,1.085-1.30567l1.67675.93506a6.69349,6.69349,0,0,1-.82031,1.13379,4.38773,4.38773,0,0,1-.92676.77588,3.71489,3.71489,0,0,1-1.06738.4458,5.2178,5.2178,0,0,1-1.24414.14111,4.04316,4.04316,0,0,1-3.08691-1.23486,4.63348,4.63348,0,0,1-1.165-3.29932,4.76524,4.76524,0,0,1,1.1289-3.2998,4.30388,4.30388,0,0,1,6.01661-.03516,4.753,4.753,0,0,1,1.09375,3.32569Zm-2.03711-1.62305a1.90189,1.90189,0,0,0-2.00293-1.58789,2.05616,2.05616,0,0,0-.67871.10987,1.94072,1.94072,0,0,0-.57813.31787,1.99257,1.99257,0,0,0-.44531.49853,2.29189,2.29189,0,0,0-.28223.66162Z"/><path class="cls-1" d="M424.35645,312.28646h1.98437v.76758a3.80041,3.80041,0,0,1,.9707-.78516,2.225,2.225,0,0,1,1.02344-.2207,3.20742,3.20742,0,0,1,1.64063.51172l-.90821,1.81738a1.89714,1.89714,0,0,0-1.10351-.40576q-1.623,0-1.623,2.45214v4.45508h-1.98437Z"/><path class="cls-1" d="M434.61523,319.28206l-3.86425-6.9956h2.30273l2.62891,4.93994,2.45215-4.93994H440.376L433.53027,325.554H431.2627Z"/><path class="cls-1" d="M443.77246,314.139v6.73974h-1.98535V314.139h-.84668v-1.85254h.84668V309.137h1.98535v3.14942h1.543V314.139Z"/><path class="cls-1" d="M447.02832,305.97884h1.98438v7.022a3.41874,3.41874,0,0,1,2.33789-.95263,3.02148,3.02148,0,0,1,2.3291.94384,3.8407,3.8407,0,0,1,.74121,2.62012v5.2666h-1.98535V315.7972a2.42152,2.42152,0,0,0-.36621-1.49512,1.4115,1.4115,0,0,0-1.17774-.46289,1.61824,1.61824,0,0,0-1.46387.64405,4.41459,4.41459,0,0,0-.415,2.24072v4.15478h-1.98438Z"/><path class="cls-1" d="M456.63477,308.7137a1.29467,1.29467,0,0,1,1.28711-1.27929,1.24989,1.24989,0,0,1,.918.37939,1.22043,1.22043,0,0,1,.37891.90869,1.24915,1.24915,0,0,1-.37891.91748,1.22054,1.22054,0,0,1-.9082.3794,1.29458,1.29458,0,0,1-1.29687-1.30567Zm2.28418,3.57276v8.59228h-1.98438v-8.59228Z"/><path class="cls-1" d="M461.43359,312.28646h1.99317v.79394a3.25534,3.25534,0,0,1,2.34668-1.03222,2.96461,2.96461,0,0,1,2.33789.94384,3.86448,3.86448,0,0,1,.72363,2.62012v5.2666h-1.99414v-4.79883a3.148,3.148,0,0,0-.35254-1.75585,1.42511,1.42511,0,0,0-1.25293-.49366,1.53106,1.53106,0,0,0-1.40234.65284,4.49092,4.49092,0,0,0-.40625,2.24951v4.146h-1.99317Z"/><path class="cls-1" d="M479.65039,320.67562q0,.60938-.03906,1.07226a7.72292,7.72292,0,0,1-.11035.81592,3.64043,3.64043,0,0,1-.8291,1.667,4.01973,4.01973,0,0,1-3.20313,1.34131,4.273,4.273,0,0,1-2.83105-.92627,3.785,3.785,0,0,1-1.32325-2.63769h1.99317a2.25024,2.25024,0,0,0,.37988.979,2.12993,2.12993,0,0,0,1.79883.80274q2.17968,0,2.17969-2.67286v-1.1997a3.70788,3.70788,0,0,1-2.72657,1.20849,3.661,3.661,0,0,1-2.876-1.2705,4.71029,4.71029,0,0,1-1.12891-3.21973,4.95343,4.95343,0,0,1,1.04981-3.19336,3.64889,3.64889,0,0,1,2.98144-1.394,3.46512,3.46512,0,0,1,2.7002,1.20849v-.97021h1.98437Zm-1.90527-4.0752a2.89208,2.89208,0,0,0-.6709-2.00293,2.215,2.215,0,0,0-1.73731-.76709,2.13772,2.13772,0,0,0-1.78222.83789,3.04524,3.04524,0,0,0-.59082,1.94092,3.01394,3.01394,0,0,0,.59082,1.92285,2.1402,2.1402,0,0,0,1.78222.82032,2.18,2.18,0,0,0,1.79981-.82911A2.95483,2.95483,0,0,0,477.74512,316.60042Z"/><path class="cls-1" d="M482.46484,319.89095a1.22611,1.22611,0,0,1,2.45215.00879,1.18925,1.18925,0,0,1-.36133.873,1.2464,1.2464,0,0,1-1.73828,0A1.1954,1.1954,0,0,1,482.46484,319.89095Z"/><path class="cls-1" d="M198.12282,28.84925,156.70225,70.26982l41.42057,41.42057a98.49751,98.49751,0,0,0,139.29651,0L378.8399,70.26982,337.41933,28.84925A98.49751,98.49751,0,0,0,198.12282,28.84925ZM179.33857,70.26982l30.89288-30.89288a81.37332,81.37332,0,0,1,115.07924,0l30.89288,30.89288L325.31069,101.1627a81.3733,81.3733,0,0,1-115.07924,0Z"/><path class="cls-2" d="M281.34119,85.2462a20.20577,20.20577,0,1,1,0-29.95274L299.74406,36.8906a46.2164,46.2164,0,1,0,0,66.75845Z"/></g></g></svg>